<?xml version="1.0" standalone="no"?>
<!DOCTYPE svg PUBLIC "-//W3C//DTD SVG 20010904//EN"
 "http://www.w3.org/TR/2001/REC-SVG-20010904/DTD/svg10.dtd">
<svg version="1.0" xmlns="http://www.w3.org/2000/svg"
 width="225.000000pt" height="225.000000pt" viewBox="0 0 225.000000 225.000000"
 preserveAspectRatio="xMidYMid meet">
<metadata>
Created by potrace 1.10, written by Peter Selinger 2001-2011
</metadata>
<g transform="translate(0.000000,225.000000) scale(0.100000,-0.100000)"
fill="#000000" stroke="none">
<path d="M1001 2191 c-6 -20 -16 -57 -22 -82 l-12 -46 -76 -17 -76 -16 -58 60
-58 60 -62 -32 c-34 -17 -85 -46 -114 -64 l-52 -33 26 -77 26 -77 -56 -52 -55
-51 -67 34 c-37 18 -73 31 -80 28 -15 -5 -90 -110 -126 -174 -15 -27 -20 -45
-14 -50 6 -4 32 -31 58 -59 l49 -51 -23 -63 c-13 -35 -27 -67 -33 -71 -5 -4
-43 -10 -82 -13 -86 -8 -84 -6 -90 -161 l-4 -102 80 -23 80 -23 0 -40 c0 -23
4 -56 9 -74 9 -30 7 -34 -19 -50 -16 -9 -49 -29 -74 -44 l-46 -27 26 -73 c33
-90 71 -168 84 -168 5 0 41 7 81 15 40 9 76 12 79 8 4 -5 27 -36 51 -69 l45
-62 75 62 c41 34 90 73 108 88 l34 25 -41 54 c-103 137 -147 281 -140 453 10
229 115 419 303 545 71 47 177 94 243 107 42 9 43 -12 0 -21 l-32 -7 27 -24
c25 -21 25 -24 9 -33 -13 -8 1 -10 53 -9 39 1 76 -1 83 -6 8 -5 12 -35 12 -87
l0 -81 30 6 c17 3 44 9 60 12 17 3 30 9 30 12 0 4 -13 32 -28 62 -17 34 -35
56 -47 58 -44 7 -49 12 -29 27 10 8 26 14 34 15 12 0 12 -2 2 -9 -11 -7 -11
-9 0 -13 20 -7 99 3 93 12 -3 5 -20 7 -38 6 -17 -2 -22 -1 -9 1 12 2 22 8 22
13 0 5 6 7 13 4 8 -3 25 4 38 15 l24 20 -22 1 c-36 0 -37 1 -54 16 -12 11 -18
11 -28 1 -9 -9 -14 -9 -21 3 -8 12 -11 12 -28 -3 -18 -16 -19 -16 -31 9 l-11
26 -19 -23 c-16 -21 -21 -22 -36 -9 -12 10 -18 11 -24 2 -8 -13 -25 -3 -34 20
-5 14 2 20 31 28 20 5 44 10 52 10 23 0 -1 -17 -40 -28 -29 -8 -31 -10 -10
-11 14 0 36 6 50 13 21 12 29 12 53 -1 16 -8 38 -12 50 -10 19 4 19 4 -4 6
-23 1 -75 30 -56 31 23 1 96 -23 94 -31 -1 -5 41 -24 95 -42 168 -59 296 -155
381 -288 83 -131 112 -247 104 -418 -7 -154 -41 -252 -129 -369 -39 -52 -39
-54 -20 -68 11 -7 60 -47 108 -87 l88 -74 39 56 c22 31 42 59 46 64 4 4 40 1
80 -8 40 -8 76 -15 80 -15 13 0 101 201 101 229 0 4 -30 29 -66 55 l-65 49 6
41 c17 109 9 99 91 124 l74 22 0 48 c-1 49 -17 193 -23 199 -2 1 -40 8 -85 15
-73 10 -82 13 -82 32 0 12 -9 41 -21 65 l-20 45 60 60 c58 61 59 61 42 87 -68
109 -118 179 -126 179 -5 0 -40 -13 -76 -29 l-65 -28 -58 54 -58 54 24 78 25
78 -66 41 c-36 22 -86 50 -110 62 l-44 22 -62 -62 c-52 -51 -66 -60 -81 -52
-11 5 -42 15 -71 22 -56 13 -57 15 -88 142 -8 32 -39 39 -165 37 l-90 -1 -9
-37z m244 -88 l20 -81 43 -7 c23 -3 66 -14 95 -25 l52 -18 62 60 61 61 79 -46
c43 -25 77 -51 76 -59 -1 -7 -10 -42 -20 -78 l-18 -65 68 -65 c38 -36 73 -67
78 -68 5 -2 39 8 74 22 36 14 67 26 69 26 6 0 96 -137 96 -147 0 -4 -24 -32
-53 -62 l-54 -54 28 -71 c16 -39 28 -81 29 -92 0 -20 7 -23 80 -29 44 -4 82
-11 85 -15 3 -4 8 -46 11 -93 l7 -84 -69 -23 c-38 -12 -72 -25 -76 -29 -4 -3
-12 -37 -18 -76 -5 -38 -12 -79 -15 -91 -4 -17 8 -30 61 -65 74 -51 75 -51 26
-160 l-30 -67 -78 18 c-44 10 -79 18 -80 17 0 -1 -18 -28 -38 -59 l-38 -58
-74 61 c-41 33 -74 62 -74 64 0 2 14 24 30 49 47 70 89 169 106 254 20 93 14
267 -10 357 -75 271 -295 467 -590 525 -39 8 -54 15 -45 20 7 5 17 6 23 3 5
-3 6 -1 2 5 -4 7 4 23 17 36 18 18 21 28 14 35 -8 8 -7 11 4 12 9 0 7 3 -5 8
-18 7 -18 8 0 25 17 18 17 18 -4 12 -23 -8 -28 10 -7 27 6 4 1 7 -10 5 -14 -2
-19 2 -17 14 2 12 -2 16 -13 12 -8 -3 -15 -1 -15 5 0 6 -7 8 -15 5 -11 -5 -14
-1 -9 12 5 16 4 16 -5 4 -10 -13 -12 -13 -21 0 -8 12 -10 12 -10 1 0 -11 -3
-11 -15 -1 -12 10 -15 10 -15 0 0 -7 -7 -10 -16 -6 -10 4 -13 2 -8 -6 5 -8 2
-9 -9 -5 -11 4 -17 1 -17 -8 0 -9 -6 -12 -17 -8 -16 5 -16 4 0 -8 17 -14 17
-15 -2 -16 -32 -3 -34 11 -10 97 l21 81 92 -3 91 -3 20 -82z m-533 -22 c7 -10
30 -37 50 -59 l38 -42 90 22 c64 16 96 19 107 12 17 -10 15 -31 -2 -26 -5 2
-2 -5 7 -14 20 -20 28 -16 31 14 0 11 4 20 7 19 3 -1 17 7 32 17 26 17 60 18
108 5 27 -7 44 -31 47 -67 2 -20 9 -40 16 -44 8 -5 6 -8 -5 -8 -10 0 -19 -4
-19 -10 -1 -5 -2 -15 -3 -22 0 -6 -8 -12 -16 -14 -8 -1 -27 -5 -42 -9 -32 -8
-33 -6 -13 42 20 48 19 86 -3 114 l-19 22 -8 -44 c-4 -24 -8 -65 -9 -92 -1
-33 -5 -46 -13 -43 -7 3 -15 1 -19 -5 -3 -5 -14 -7 -25 -4 -11 4 -19 2 -19 -4
0 -6 -13 -11 -28 -11 -16 0 -57 -9 -93 -21 -244 -80 -424 -263 -492 -499 -64
-223 -22 -448 126 -663 10 -15 9 -20 -5 -28 -9 -5 -43 -31 -76 -59 l-59 -50
-42 60 c-24 34 -50 60 -59 60 -9 -1 -46 -7 -82 -15 -36 -7 -65 -13 -66 -12
-17 23 -78 177 -72 182 2 1 35 21 74 44 l71 42 -13 38 c-7 20 -14 65 -16 99
l-3 61 -83 23 -84 23 6 60 c4 33 9 74 12 92 7 35 11 36 115 48 l56 6 31 92 31
92 -57 57 -56 58 18 32 c35 60 88 128 99 128 7 -1 40 -16 75 -33 l63 -33 75
71 74 71 -25 74 c-14 40 -24 74 -22 75 13 11 163 95 169 95 4 0 13 -8 20 -19z
m433 -149 c-6 -32 -9 -34 -16 -17 -8 17 -9 15 -5 -8 2 -15 -1 -30 -5 -33 -13
-8 -11 42 3 88 9 32 13 36 21 23 5 -9 6 -33 2 -53z m-5 -183 c0 -19 -5 -29
-15 -29 -8 0 -15 6 -15 13 0 9 -3 8 -9 -2 -7 -10 -12 -8 -24 10 -20 27 -16 34
11 20 16 -9 21 -7 25 10 8 29 27 14 27 -22z m40 -14 c-7 -8 -16 -15 -21 -15
-15 0 -10 22 9 43 15 17 17 17 20 3 2 -9 -2 -23 -8 -31z m-120 10 c13 -14 20
-25 16 -25 -12 0 -56 32 -56 41 0 16 16 10 40 -16z m187 17 c19 -12 -2 -34
-37 -38 -30 -4 -31 -2 -19 14 26 32 36 37 56 24z m-229 -14 c6 -7 11 -17 12
-23 1 -5 6 -9 11 -7 5 1 9 -2 9 -8 0 -5 -9 -10 -21 -10 -11 0 -18 4 -15 9 3 4
-7 14 -21 20 -22 10 -24 14 -12 22 19 12 25 11 37 -3z m166 -123 c-4 -9 0 -15
10 -15 10 0 13 -6 10 -15 -4 -8 -12 -15 -19 -15 -17 0 -27 42 -12 52 17 11 17
10 11 -7z"/>
<path d="M1712 1755 c4 -5 -8 -27 -27 -50 l-34 -42 27 -26 c39 -38 84 -45 111
-18 12 12 21 28 21 36 0 18 -55 82 -84 97 -11 6 -18 7 -14 3z m70 -110 c-14
-30 -55 -34 -90 -9 l-22 15 32 40 32 40 30 -30 c26 -27 28 -33 18 -56z"/>
<path d="M1840 1627 c0 -20 -65 -71 -80 -62 -17 10 -11 -5 13 -35 12 -16 30
-40 40 -54 19 -27 61 -35 70 -13 2 6 1 21 -4 32 -13 32 -10 55 6 55 16 0 36
-39 28 -52 -2 -5 1 -8 6 -8 18 0 13 36 -7 53 -10 10 -29 17 -41 17 -20 0 -23
-4 -19 -27 3 -16 9 -36 13 -45 5 -12 2 -20 -9 -24 -24 -9 -48 16 -43 43 3 17
1 23 -9 19 -7 -3 -16 -1 -19 3 -7 13 64 64 80 57 20 -7 19 1 -5 31 -14 18 -20
21 -20 10z"/>
<path d="M1870 1431 c-5 -11 -10 -31 -10 -46 0 -26 28 -91 36 -83 2 3 -3 20
-12 38 -23 45 -10 84 29 88 16 2 34 -2 42 -8 20 -17 28 -62 13 -71 -10 -7 -9
-9 5 -9 23 0 22 36 -3 78 -16 26 -26 32 -55 32 -24 0 -37 -6 -45 -19z"/>
<path d="M1990 1306 c0 -17 -57 -31 -87 -22 -17 6 -18 2 -8 -61 5 -37 11 -60
13 -50 2 11 13 17 30 17 15 0 37 3 48 6 23 6 38 -15 28 -41 -9 -22 -33 -18
-44 8 l-9 22 0 -22 c-1 -22 22 -53 39 -53 20 0 31 41 23 92 -4 29 -9 45 -11
36 -5 -23 -90 -37 -103 -17 -5 8 -7 18 -6 24 4 11 76 28 94 21 16 -6 18 40 3
49 -5 3 -10 -1 -10 -9z"/>
<path d="M2020 1099 c0 -8 -20 -10 -60 -7 l-60 4 0 -47 c0 -32 5 -49 15 -52 8
-4 17 -2 20 3 4 6 -1 10 -9 10 -11 0 -16 9 -16 30 0 29 1 30 50 30 28 0 50 -4
50 -10 0 -25 16 -7 18 20 1 17 0 30 -3 30 -3 0 -5 -5 -5 -11z"/>
<path d="M1886 952 c-3 -22 -9 -47 -12 -56 -4 -12 -2 -15 9 -11 8 4 29 0 47
-7 l33 -14 -61 -27 c-34 -15 -64 -32 -66 -36 -3 -5 17 -18 45 -29 28 -12 48
-26 44 -32 -3 -5 -1 -10 4 -10 6 0 11 4 11 9 0 5 3 17 6 25 4 12 2 15 -9 11
-8 -4 -30 0 -48 8 l-34 15 31 11 c64 24 99 47 102 66 2 13 0 16 -5 8 -6 -9
-19 -7 -51 7 -39 17 -54 42 -34 54 12 7 92 -15 92 -26 0 -5 5 -6 10 -3 6 3 10
18 10 33 0 18 -3 23 -9 14 -9 -15 -89 -1 -101 18 -4 6 -10 -6 -14 -28z"/>
<path d="M1787 718 c-23 -41 -24 -48 -11 -59 13 -11 14 -9 10 12 -7 30 15 62
38 53 20 -8 20 -23 1 -44 -14 -15 -14 -19 2 -31 15 -12 16 -12 11 3 -4 9 -1
23 5 32 10 13 15 13 31 1 17 -13 17 -15 -7 -39 -14 -14 -22 -28 -17 -31 4 -3
22 17 38 44 23 37 27 48 14 44 -10 -2 -33 10 -53 29 l-36 33 -26 -47z"/>
<path d="M980 1949 c0 -5 8 -9 17 -9 15 0 14 -2 -3 -16 -16 -13 -16 -15 -1
-10 20 6 22 -5 5 -22 -7 -7 -8 -12 -2 -12 5 0 16 6 23 13 10 10 12 9 9 -3 -2
-8 -7 -19 -13 -23 -6 -5 -3 -7 6 -4 9 3 22 0 28 -6 21 -21 23 2 2 29 -11 15
-21 35 -21 44 0 11 -10 20 -25 22 -14 3 -25 1 -25 -3z"/>
<path d="M577 1833 c-4 -3 -7 -20 -7 -37 0 -17 -4 -37 -9 -45 -7 -11 -11 -10
-20 6 -5 11 -7 24 -3 29 4 5 -3 0 -15 -10 -23 -19 -31 -32 -14 -22 4 3 22 -12
39 -33 35 -44 30 -55 -25 -63 -29 -4 -33 -2 -33 19 0 42 -29 40 -72 -7 -22
-24 -32 -40 -22 -36 22 8 97 -42 90 -61 -9 -21 8 -14 26 12 17 23 17 24 0 22
-25 -1 -83 44 -80 63 2 8 12 15 23 15 15 0 19 -6 18 -22 -2 -20 2 -23 35 -23
28 0 47 9 77 35 22 19 33 33 24 30 -9 -3 -22 1 -29 10 -11 13 -7 15 33 15 25
0 49 6 56 13 9 11 1 13 -43 9 l-54 -4 7 35 c5 19 11 40 15 46 8 12 -6 15 -17
4z"/>
<path d="M352 1567 c-43 -46 -18 -117 41 -117 32 0 67 42 67 80 0 56 -68 80
-108 37z m80 -14 c22 -20 23 -41 1 -65 -20 -22 -51 -23 -75 -1 -22 20 -23 41
-1 65 20 22 51 23 75 1z"/>
<path d="M287 1439 c-4 -15 -2 -19 9 -15 7 3 26 -6 41 -19 l28 -24 -25 -2
c-14 -1 -35 -2 -47 -2 -32 -1 -29 -12 12 -44 19 -15 35 -31 35 -35 0 -12 -65
-9 -77 3 -7 7 -12 3 -15 -15 -3 -14 -2 -24 1 -22 3 2 31 7 61 11 30 4 56 8 58
10 2 2 -14 19 -35 39 l-38 35 48 1 c26 0 47 4 47 8 0 5 -22 27 -49 50 -45 38
-49 40 -54 21z"/>
<path d="M247 1222 c-12 -13 -17 -37 -17 -78 0 -37 4 -54 9 -45 6 9 24 12 60
10 l51 -4 0 46 c0 35 -5 51 -23 67 -28 27 -58 28 -80 4z m77 -24 c9 -12 16
-33 16 -45 0 -21 -5 -23 -50 -23 -49 0 -50 1 -50 29 0 56 55 81 84 39z"/>
<path d="M317 1054 c-18 -23 -20 -24 -37 -9 -23 21 -50 9 -50 -22 l0 -25 18
22 19 23 15 -22 16 -22 26 34 c14 19 26 37 26 40 0 14 -16 5 -33 -19z"/>
<path d="M350 1010 c0 -9 -40 -19 -87 -23 -17 -1 -23 -7 -23 -26 0 -22 1 -23
13 -8 8 12 28 18 60 20 41 2 47 5 47 25 0 12 -2 22 -5 22 -3 0 -5 -4 -5 -10z"/>
<path d="M306 899 c-53 -51 -53 -51 29 -65 42 -7 78 -31 69 -45 -3 -5 -24 -19
-46 -30 -33 -17 -42 -18 -50 -7 -8 10 -8 10 -4 -2 3 -8 9 -23 12 -32 4 -10 11
-18 16 -18 5 0 6 5 2 11 -6 10 11 28 27 29 3 0 13 -15 22 -34 14 -29 14 -35 1
-40 -8 -3 -21 -3 -30 1 -15 5 -15 3 1 -20 15 -24 34 -40 21 -19 -7 12 72 55
89 48 11 -4 12 -1 3 18 -10 23 -11 23 -29 5 -26 -26 -35 -24 -48 13 -10 28 -9
35 5 45 9 7 21 10 25 7 10 -6 3 15 -22 65 -10 20 -18 30 -19 24 0 -24 -28 -13
-34 12 -8 30 1 48 19 41 9 -3 11 2 8 15 -3 11 -8 20 -12 22 -3 1 -28 -19 -55
-44z m27 -29 c4 -16 0 -20 -20 -20 -25 0 -26 0 -8 20 10 11 19 20 20 20 2 0 5
-9 8 -20z"/>
<path d="M1065 1672 c-31 -7 -46 -23 -71 -77 -27 -57 -26 -58 59 -67 l47 -6 0
74 c0 77 -3 83 -35 76z"/>
<path d="M1232 1654 c2 -5 14 -30 26 -57 l23 -47 31 16 c30 15 30 16 12 33
-25 24 -98 67 -92 55z"/>
<path d="M927 1620 c-26 -16 -47 -32 -47 -35 0 -5 55 -35 65 -35 3 0 5 5 5 10
0 6 9 29 19 50 11 22 16 40 12 40 -4 0 -28 -13 -54 -30z"/>
<path d="M822 1508 c-16 -29 -32 -65 -36 -80 -7 -29 -6 -29 76 -13 9 1 25 -3
35 -11 17 -13 17 -14 -2 -7 -18 6 -18 5 -6 -10 11 -15 11 -17 -2 -17 -8 0 -18
6 -20 13 -3 7 -6 5 -6 -6 -1 -14 -7 -16 -28 -11 -16 4 -36 11 -45 16 -14 7
-18 4 -18 -12 0 -19 5 -21 73 -18 l72 3 7 73 c3 40 9 76 12 79 5 5 -67 53 -79
53 -2 0 -17 -24 -33 -52z m78 -58 c0 -16 -4 -30 -9 -30 -4 0 -6 11 -3 25 3 20
0 25 -17 25 -23 0 -30 -35 -8 -43 6 -3 2 -6 -10 -6 -31 -1 -53 9 -53 25 0 19
29 33 68 34 29 0 32 -3 32 -30z"/>
<path d="M1322 1538 c-27 -17 -32 -25 -28 -47 3 -14 8 -52 12 -83 l6 -58 69 0
c79 0 80 2 55 84 -15 49 -61 127 -74 125 -4 0 -22 -10 -40 -21z m86 -70 c2
-14 -4 -33 -13 -41 -11 -11 -13 -25 -9 -43 6 -25 5 -27 -17 -21 -13 4 -30 7
-36 7 -7 0 -13 5 -13 11 0 6 9 8 20 4 12 -4 20 -2 20 5 0 6 -4 9 -9 6 -4 -3
-16 0 -26 8 -14 10 -15 17 -6 34 6 11 8 28 5 36 -3 9 -1 16 5 16 6 0 11 -5 11
-11 0 -5 10 -3 22 5 29 21 42 16 46 -16z"/>
<path d="M957 1473 c-4 -21 -7 -57 -7 -81 l0 -43 75 2 75 2 0 67 0 68 -47 7
c-27 3 -57 9 -69 11 -18 5 -22 0 -27 -33z m90 2 c26 -13 31 -21 31 -50 0 -28
-6 -38 -26 -49 -23 -12 -31 -12 -54 0 -22 12 -28 22 -28 48 0 29 13 47 46 65
0 1 15 -6 31 -14z"/>
<path d="M1050 1453 c0 -5 -13 -8 -29 -7 -23 1 -28 -2 -24 -13 3 -8 0 -18 -6
-23 -7 -4 9 -7 36 -7 26 0 42 2 36 4 -16 6 -17 30 -1 35 9 3 9 6 0 12 -7 4
-12 3 -12 -1z"/>
<path d="M1183 1497 l-53 -10 0 -68 0 -69 75 0 c85 0 82 -5 64 97 -6 36 -16
62 -23 62 -6 -1 -35 -6 -63 -12z m61 -42 c37 -51 -44 -112 -84 -62 -19 23 -15
67 6 67 8 0 14 4 14 9 0 16 50 5 64 -14z"/>
<path d="M1379 1322 l-66 -3 -6 -62 c-4 -34 -10 -72 -13 -84 -5 -17 -2 -23 8
-23 9 0 26 -9 40 -19 l24 -20 28 42 c28 43 60 138 54 160 -2 8 -23 11 -69 9z
m-9 -41 c2 -1 -1 -6 -7 -12 -8 -8 -7 -18 3 -37 22 -42 18 -55 -13 -47 -37 9
-39 12 -25 36 9 13 9 25 3 38 -12 22 -6 30 17 26 9 -2 19 -4 22 -4z"/>
<path d="M776 1288 c8 -42 53 -145 69 -158 9 -8 23 -6 50 7 l36 17 -7 61 c-4
33 -8 70 -8 83 -1 21 -5 22 -73 22 l-72 0 5 -32z m114 -12 c0 -13 8 -38 17
-55 10 -16 14 -33 9 -38 -5 -4 -11 -2 -13 5 -6 14 -49 16 -58 2 -9 -15 -25
-12 -25 5 0 8 5 15 10 15 6 0 10 11 10 25 0 14 5 24 12 23 7 -2 13 4 14 12 2
26 4 30 14 30 6 0 10 -11 10 -24z"/>
<path d="M953 1248 c5 -40 10 -74 11 -75 1 -2 32 0 69 4 l67 6 0 68 0 69 -78
0 -78 0 9 -72z m113 33 c-13 -14 -14 -24 -6 -45 12 -33 12 -36 1 -36 -5 0 -13
9 -16 20 -8 25 -19 26 -31 1 -8 -17 -11 -17 -22 -5 -10 11 -10 14 2 14 26 0
26 28 0 34 -38 10 -28 25 14 19 27 -4 42 -1 51 11 8 9 16 14 19 11 3 -3 -2
-13 -12 -24z"/>
<path d="M1130 1251 l0 -68 62 -6 c35 -3 64 -4 65 -3 2 1 6 18 9 37 6 28 4 32
-7 22 -19 -19 -43 -16 -64 7 -20 22 -35 26 -35 10 0 -5 7 -10 15 -10 8 0 15
-5 15 -11 0 -6 -10 -9 -22 -7 -17 2 -23 10 -23 28 0 32 27 38 54 11 22 -22 51
-28 51 -11 0 6 -9 10 -20 10 -11 0 -20 4 -20 8 0 11 39 12 45 1 10 -15 25 0
25 27 0 23 -2 24 -75 24 l-75 0 0 -69z"/>
<path d="M998 1142 l-28 -7 24 -50 c39 -85 86 -115 86 -55 0 20 -5 30 -15 30
-10 0 -15 10 -15 29 0 24 5 29 33 34 18 3 45 3 60 0 22 -4 27 -11 27 -34 0
-20 -5 -29 -16 -29 -13 0 -15 -6 -9 -27 9 -36 13 -39 33 -27 22 14 78 122 68
131 -10 10 -213 14 -248 5z"/>
<path d="M912 1111 c-31 -16 -32 -18 -15 -32 51 -44 121 -71 82 -32 -6 6 -16
26 -23 46 l-12 35 -32 -17z"/>
<path d="M1270 1105 c-5 -14 -17 -39 -26 -57 l-16 -31 33 20 c93 54 93 55 49
78 -29 15 -31 15 -40 -10z"/>
<path d="M1107 1069 c9 -9 8 -15 -2 -26 -16 -15 -10 -43 9 -43 11 0 13 21 7
73 -1 4 -6 7 -13 7 -9 0 -9 -3 -1 -11z"/>
<path d="M995 949 c-16 -3 -55 -7 -85 -8 l-55 -1 -68 -89 c-68 -89 -68 -90
-52 -115 10 -14 15 -33 11 -41 -5 -13 15 -15 149 -15 127 0 158 -3 184 -17 27
-16 33 -16 63 -3 23 10 81 15 195 18 156 3 162 4 151 22 -9 14 -9 25 -1 43 10
21 5 35 -39 109 -39 65 -55 84 -69 81 -9 -3 -42 2 -72 11 -68 20 -108 20 -151
2 -19 -8 -38 -10 -42 -6 -13 12 -84 18 -119 9z m100 -21 c16 -7 24 -17 20 -26
-3 -7 -5 -40 -5 -72 l0 -59 -35 15 c-40 16 -96 18 -180 4 -123 -19 -147 -21
-139 -7 4 6 30 40 58 75 49 61 50 62 100 63 28 1 62 5 76 9 38 12 76 11 105
-2z m229 -6 c69 -18 70 -18 109 -81 21 -35 36 -65 34 -67 -2 -3 -53 3 -113 12
-104 17 -160 14 -214 -10 -13 -5 -15 5 -12 69 3 67 6 77 25 85 35 14 97 11
171 -8z m-244 -152 c19 -10 19 -12 4 -36 -15 -22 -22 -24 -58 -20 -84 11 -182
15 -146 6 28 -6 21 -8 -38 -8 -40 1 -75 4 -78 9 -3 5 14 9 37 9 50 0 47 9 -4
13 -20 2 -40 7 -44 12 -5 4 12 5 37 2 122 -17 128 -18 75 -4 l-50 13 75 11
c83 13 159 10 190 -7z m170 9 c-25 -6 -17 -7 30 -3 52 3 61 2 46 -7 -11 -7
-43 -10 -81 -6 -35 2 -69 1 -76 -4 -12 -7 -12 -9 0 -9 8 0 12 -3 8 -6 -3 -3
-13 -2 -23 4 -13 7 -14 11 -4 17 19 12 71 23 105 23 29 -1 29 -1 -5 -9z m100
-31 c0 -5 -30 -8 -67 -8 -38 0 -73 -4 -80 -8 -15 -10 121 -3 164 8 35 9 99 -1
96 -15 -1 -6 -24 -12 -50 -16 l-48 -5 40 -5 c22 -3 -18 -6 -90 -7 -95 -1 -126
1 -115 9 12 9 11 10 -8 6 -12 -3 -20 -1 -16 4 3 5 -1 9 -8 9 -7 1 -2 7 11 14
13 7 19 15 12 17 -6 2 27 4 74 4 47 0 85 -3 85 -7z m-210 -22 c22 -43 -8 -73
-48 -47 -12 7 -11 14 2 40 20 37 28 39 46 7z m-95 -26 c12 -5 -39 -8 -130 -7
-121 0 -135 2 -75 7 112 10 183 10 205 0z"/>
<path d="M1326 864 c-8 -21 -8 -24 5 -24 5 0 7 5 4 10 -3 6 3 10 14 10 12 0
21 5 21 10 0 16 -37 11 -44 -6z"/>
<path d="M1280 830 c0 -5 19 -10 42 -10 49 0 47 5 -4 14 -24 4 -38 3 -38 -4z"/>
<path d="M915 757 c22 -5 67 -6 99 -4 38 4 54 2 45 -4 -8 -5 -9 -9 -4 -9 14 0
42 20 30 20 -5 1 -55 2 -110 4 -77 2 -91 0 -60 -7z"/>
<path d="M948 733 c18 -2 45 -2 60 0 15 2 0 4 -33 4 -33 0 -45 -2 -27 -4z"/>
<path d="M1253 713 c20 -2 54 -2 75 0 20 2 3 4 -38 4 -41 0 -58 -2 -37 -4z"/>
<path d="M1040 543 c-151 -6 -335 -44 -506 -104 -113 -40 -118 -43 -99 -80 8
-15 15 -30 15 -32 0 -2 -27 -16 -60 -32 -33 -16 -60 -32 -60 -37 0 -15 122
-238 130 -238 5 0 36 13 69 29 34 16 95 39 137 52 74 23 76 24 70 51 -3 15 -9
41 -12 56 l-6 28 79 12 c173 27 294 33 432 22 121 -9 266 -32 278 -44 3 -2 0
-21 -6 -43 -6 -21 -11 -43 -11 -50 0 -6 33 -21 73 -33 39 -12 102 -35 140 -51
37 -17 72 -27 77 -24 11 7 120 215 120 229 -1 6 -28 24 -60 41 -33 16 -60 31
-60 33 0 2 8 17 17 33 9 15 15 30 12 33 -2 2 -48 20 -101 40 -215 80 -442 117
-668 109z m410 -86 c86 -21 277 -81 288 -92 2 -1 -12 -33 -30 -69 -24 -49 -36
-65 -48 -60 -41 17 -189 54 -275 69 -127 21 -404 21 -549 0 -59 -9 -146 -27
-193 -41 -47 -14 -88 -23 -90 -20 -3 2 -17 31 -33 64 l-28 60 41 16 c96 35
227 69 397 100 14 3 113 3 220 1 165 -3 211 -7 300 -28z m-967 -158 c3 -12 10
-18 16 -14 7 4 8 0 4 -11 -4 -11 -3 -15 4 -11 7 5 9 0 6 -13 -4 -16 -2 -19 13
-13 13 5 16 3 12 -8 -7 -17 42 -17 107 0 22 5 40 9 41 8 1 -1 4 -23 6 -48 l5
-46 -88 -28 c-48 -16 -85 -33 -82 -38 3 -5 -4 -6 -17 -2 -15 5 -20 4 -16 -4 4
-7 -1 -11 -13 -11 -11 0 -23 5 -27 12 -5 8 -1 9 12 4 13 -5 11 1 -8 17 -16 14
-28 29 -28 36 0 6 -5 11 -11 11 -6 0 -9 6 -6 14 3 8 -3 22 -14 32 -11 10 -17
24 -14 31 2 8 1 11 -5 8 -5 -3 -8 3 -7 14 0 11 4 19 7 18 3 -1 16 5 29 12 21
12 23 11 18 -3 -4 -10 -3 -15 3 -11 6 3 10 13 10 21 0 8 6 13 13 12 6 -2 11 5
11 15 -2 24 13 21 19 -4z m1296 -7 c7 -13 6 -23 -2 -32 -10 -12 -9 -12 6 -1
14 12 22 12 41 1 13 -7 28 -10 33 -7 5 4 10 0 10 -8 0 -8 -5 -11 -10 -8 -6 4
-8 0 -4 -10 3 -10 3 -17 -1 -17 -4 0 -16 -12 -26 -27 -11 -14 -13 -23 -6 -18
14 9 14 8 -26 -56 -13 -20 -20 -40 -17 -43 4 -3 -1 -6 -11 -6 -9 0 -15 4 -12
9 3 4 -7 6 -22 4 -22 -4 -24 -2 -12 7 12 9 10 11 -12 7 -16 -2 -28 -1 -28 4 0
12 -75 35 -128 38 -7 1 -10 6 -7 11 3 6 3 10 -2 10 -4 0 -7 20 -5 45 3 37 7
45 21 41 46 -14 98 -24 116 -23 22 0 45 19 45 37 0 6 4 9 9 6 5 -3 12 1 15 10
3 8 2 12 -4 9 -14 -9 -12 9 2 23 17 17 26 15 37 -6z"/>
<path d="M935 462 c-41 -3 -41 -3 -37 -40 5 -64 12 -82 28 -82 12 0 15 7 12
25 -4 17 -1 25 9 25 7 0 19 -11 25 -25 6 -14 17 -25 25 -25 16 0 16 5 3 31 -8
13 -7 25 1 40 16 32 -14 55 -66 51z m35 -37 c0 -8 -9 -15 -20 -15 -11 0 -20 7
-20 15 0 8 9 15 20 15 11 0 20 -7 20 -15z"/>
<path d="M1030 410 l0 -60 50 0 c28 0 50 5 50 10 0 6 -16 10 -35 10 -24 0 -35
5 -35 15 0 9 9 15 25 15 14 0 25 5 25 10 0 6 -11 10 -25 10 -16 0 -25 6 -25
16 0 13 7 15 35 11 26 -4 35 -2 35 9 0 10 -13 14 -50 14 l-50 0 0 -60z"/>
<path d="M1173 460 c-30 -12 -40 -56 -22 -89 17 -30 55 -38 84 -17 25 18 11
34 -16 18 -28 -18 -47 -1 -41 38 5 33 27 40 47 13 13 -18 37 -10 29 11 -4 11
-48 38 -57 35 -1 0 -12 -4 -24 -9z"/>
</g>
</svg>
